%TF.GenerationSoftware,KiCad,Pcbnew,(5.1.6)-1*%
%TF.CreationDate,2022-10-20T16:59:24-04:00*%
%TF.ProjectId,not-a-varta,6e6f742d-612d-4766-9172-74612e6b6963,rev?*%
%TF.SameCoordinates,Original*%
%TF.FileFunction,Copper,L2,Bot*%
%TF.FilePolarity,Positive*%
%FSLAX46Y46*%
G04 Gerber Fmt 4.6, Leading zero omitted, Abs format (unit mm)*
G04 Created by KiCad (PCBNEW (5.1.6)-1) date 2022-10-20 16:59:24*
%MOMM*%
%LPD*%
G01*
G04 APERTURE LIST*
%TA.AperFunction,SMDPad,CuDef*%
%ADD10R,1.250000X0.600000*%
%TD*%
%TA.AperFunction,ComponentPad*%
%ADD11C,2.775000*%
%TD*%
%TA.AperFunction,ComponentPad*%
%ADD12C,1.700000*%
%TD*%
%TA.AperFunction,ViaPad*%
%ADD13C,0.800000*%
%TD*%
%TA.AperFunction,Conductor*%
%ADD14C,0.500000*%
%TD*%
G04 APERTURE END LIST*
D10*
%TO.P,IC1,1*%
%TO.N,+BATT*%
X150388000Y-102570000D03*
%TO.P,IC1,2*%
%TO.N,-BATT*%
X150388000Y-101620000D03*
%TO.P,IC1,3*%
%TO.N,+BATT*%
X150388000Y-100670000D03*
%TO.P,IC1,4*%
%TO.N,Net-(IC1-Pad4)*%
X152888000Y-100670000D03*
%TO.P,IC1,5*%
%TO.N,VDD*%
X152888000Y-102570000D03*
%TD*%
D11*
%TO.P,J1,1*%
%TO.N,+BATT*%
X145059400Y-101574600D03*
%TO.P,J1,2*%
X158259400Y-101574600D03*
%TD*%
D12*
%TO.P,J2,1*%
%TO.N,VDD*%
X161213800Y-101600000D03*
%TD*%
%TO.P,J3,1*%
%TO.N,-BATT*%
X142189200Y-101600000D03*
%TD*%
D13*
%TO.N,-BATT*%
X150388000Y-101620000D03*
%TD*%
D14*
%TO.N,+BATT*%
X145964000Y-100670000D02*
X150388000Y-100670000D01*
X145059400Y-101574600D02*
X145964000Y-100670000D01*
X151513000Y-100670000D02*
X151714200Y-100871200D01*
X150388000Y-100670000D02*
X151513000Y-100670000D01*
X151513000Y-102570000D02*
X150388000Y-102570000D01*
X151714200Y-102368800D02*
X151513000Y-102570000D01*
X158259400Y-101574600D02*
X151714200Y-101574600D01*
X151714200Y-100871200D02*
X151714200Y-101574600D01*
X151714200Y-101574600D02*
X151714200Y-102368800D01*
%TO.N,-BATT*%
X142189200Y-101600000D02*
X142189200Y-102844600D01*
X142189200Y-102844600D02*
X143281400Y-103936800D01*
X143281400Y-103936800D02*
X146202400Y-103936800D01*
X148519200Y-101620000D02*
X150388000Y-101620000D01*
X146202400Y-103936800D02*
X148519200Y-101620000D01*
X150388000Y-101620000D02*
X150388000Y-101620000D01*
%TO.N,VDD*%
X161213800Y-102692200D02*
X161213800Y-101600000D01*
X160045400Y-103860600D02*
X161213800Y-102692200D01*
X156565600Y-103860600D02*
X160045400Y-103860600D01*
X152888000Y-102570000D02*
X155275000Y-102570000D01*
X155275000Y-102570000D02*
X156565600Y-103860600D01*
%TD*%
M02*
